<?xml version="1.0" encoding="UTF-8" standalone="no"?>
<!-- Created with Inkscape (http://www.inkscape.org/) -->

<svg
   version="1.1"
   id="svg2"
   width="400"
   height="400"
   viewBox="0 0 400 400"
   sodipodi:docname="Quality Management.ai"
   xmlns:inkscape="http://www.inkscape.org/namespaces/inkscape"
   xmlns:sodipodi="http://sodipodi.sourceforge.net/DTD/sodipodi-0.dtd"
   xmlns="http://www.w3.org/2000/svg"
   xmlns:svg="http://www.w3.org/2000/svg">
  <defs
     id="defs6">
    <clipPath
       clipPathUnits="userSpaceOnUse"
       id="clipPath16">
      <path
         d="M 0,300 H 300 V 0 H 0 Z"
         id="path14" />
    </clipPath>
  </defs>
  <sodipodi:namedview
     id="namedview4"
     pagecolor="#ffffff"
     bordercolor="#000000"
     borderopacity="0.25"
     inkscape:showpageshadow="2"
     inkscape:pageopacity="0.0"
     inkscape:pagecheckerboard="0"
     inkscape:deskcolor="#d1d1d1" />
  <g
     id="g8"
     inkscape:groupmode="layer"
     inkscape:label="Quality Management"
     transform="matrix(1.3333333,0,0,-1.3333333,0,400)">
    <g
       id="g10">
      <g
         id="g12"
         clip-path="url(#clipPath16)">
        <g
           id="g18"
           transform="translate(172.481,270.5406)">
          <path
             d="m 0,0 c -2.999,0.208 -5.911,0.094 -8.774,-0.297 -5.656,-0.773 -11.172,-2.167 -16.489,-4.302 -6.158,-2.473 -11.721,-5.954 -16.943,-9.994 -5.001,-3.869 -9.256,-8.521 -12.97,-13.581 -4.166,-5.677 -7.24,-12.004 -9.287,-18.763 -1.415,-4.674 -2.38,-9.454 -2.812,-14.34 -0.68,-7.701 0.089,-15.232 1.991,-22.729 1.735,-6.839 4.401,-13.234 8.156,-19.164 4.609,-7.279 10.394,-13.455 17.449,-18.481 5.744,-4.092 11.872,-7.399 18.542,-9.59 5.739,-1.885 11.698,-2.958 17.736,-3.273 7.113,-0.371 14.117,0.505 21.007,2.347 3.91,1.045 7.708,2.41 11.333,4.161 4.617,2.23 8.977,4.902 12.983,8.16 3.539,2.878 6.783,6.031 9.732,9.492 3.254,3.819 5.968,8.013 8.297,12.454 2.258,4.307 3.918,8.844 5.085,13.558 0.863,3.484 1.497,6.994 1.841,10.589 0.5,5.223 0.383,10.42 -0.185,15.594 -0.431,3.936 -1.459,7.78 -2.648,11.581 -1.758,5.614 -4.226,10.872 -7.392,15.808 -2.648,4.129 -5.7,7.921 -9.178,11.412 -3.101,3.114 -6.51,5.808 -10.119,8.251 C 33.457,-8.47 29.273,-6.35 24.9,-4.563 20.849,-2.909 16.662,-1.726 12.41,-0.898 8.31,-0.1 4.118,0.333 0,0 m 53.851,-132.786 c -1.941,0.208 -3.865,-0.09 -5.76,-0.39 -3.755,-0.596 -5.607,-3.428 -7.141,-6.509 -0.944,-1.895 -1.749,-3.859 -2.673,-5.764 -2.081,-4.288 -4.817,-5.524 -9.422,-4.347 -2.555,0.652 -4.962,1.713 -7.432,2.603 -3.571,1.287 -6.863,1.04 -9.937,-1.645 -2.344,-2.047 -4.321,-4.529 -7.053,-6.129 -1.285,-0.752 -2.547,-1.537 -4.093,-1.663 -1.953,-0.159 -3.493,0.761 -5.031,1.782 -2.623,1.741 -4.672,4.14 -7.094,6.121 -3.245,2.654 -6.555,2.757 -10.242,1.434 -2.784,-0.998 -5.476,-2.25 -8.437,-2.768 -2.92,-0.51 -5.113,0.315 -6.86,2.789 -1.367,1.936 -2.261,4.102 -3.217,6.241 -1.184,2.644 -2.438,5.191 -5.014,6.859 -1.076,0.697 -2.24,0.904 -3.388,1.039 -1.808,0.214 -3.629,0.535 -5.469,0.343 -2.254,-0.235 -4.415,0.282 -6.534,0.915 -2.587,0.774 -3.774,2.76 -4.245,5.294 -0.505,2.715 -0.554,5.453 -0.605,8.206 -0.049,2.651 -0.319,5.393 -2.459,7.294 -1.756,1.558 -3.833,2.684 -6.039,3.596 -2.558,1.057 -5.109,2.188 -7.158,4.163 -1.479,1.426 -1.922,3.186 -1.684,5.137 0.386,3.166 1.744,6.043 2.848,8.986 1.488,3.969 1.211,7.532 -1.673,10.883 -1.756,2.04 -3.76,3.838 -5.391,6.006 -3.28,4.356 -2.879,6.766 0.341,10.794 1.587,1.987 3.327,3.862 5.099,5.688 3.068,3.161 2.99,6.796 1.687,10.593 -1.036,3.02 -2.386,5.926 -2.938,9.114 -0.437,2.522 1.029,5.333 3.94,6.903 2.033,1.097 4.096,2.16 6.221,3.059 6.291,2.659 6.995,5.344 7.191,10.865 0.106,2.998 0.159,5.975 0.943,8.881 0.585,2.172 2.048,3.517 4.198,4.128 3.106,0.882 6.321,0.732 9.481,0.81 4.689,0.117 7.949,2.072 9.874,6.362 1.057,2.356 2.013,4.752 3.297,7.016 2.512,4.43 5.631,4.882 9.715,3.438 3.29,-1.164 6.53,-2.466 9.926,-3.301 1.547,-0.381 2.95,0.256 4.3,0.864 1.872,0.842 3.317,2.293 4.799,3.67 1.762,1.636 3.476,3.308 5.529,4.617 2.214,1.413 5.075,1.424 7.272,0.015 2.451,-1.572 4.422,-3.676 6.539,-5.615 1.73,-1.586 3.688,-2.753 5.878,-3.527 1.573,-0.556 3.075,0.202 4.512,0.6 2.481,0.688 4.844,1.791 7.295,2.601 4.951,1.633 7.815,0.853 10.543,-4.183 1.547,-2.856 2.445,-6.021 4.316,-8.724 1.778,-2.569 4.377,-3.557 7.274,-3.737 2.933,-0.183 5.869,-0.274 8.797,-0.591 4.772,-0.517 6.359,-3.386 6.569,-7.492 0.138,-2.698 0.243,-5.412 0.396,-8.11 0.219,-3.878 2.558,-6.344 5.956,-8.011 3.041,-1.492 6.255,-2.656 8.986,-4.759 1.922,-1.48 2.734,-3.823 2.325,-6.213 -0.515,-3.008 -1.825,-5.726 -2.825,-8.552 -2.224,-6.287 -0.677,-8.375 3.663,-13.031 2.244,-2.408 4.789,-4.617 5.511,-8.089 0.337,-1.621 -0.187,-3.008 -0.908,-4.373 -1.527,-2.893 -4.036,-4.984 -6.126,-7.414 -1.332,-1.549 -2.48,-3.154 -3.076,-5.15 -0.516,-1.727 0.256,-3.227 0.656,-4.777 0.635,-2.461 1.84,-4.752 2.535,-7.179 1.402,-4.894 1.275,-7.65 -4.724,-10.732 -2.351,-1.207 -4.796,-2.212 -7.124,-3.482 -3.258,-1.778 -4.627,-4.547 -4.903,-8.088 -0.265,-3.402 0.067,-6.858 -0.85,-10.2 -0.567,-2.069 -1.804,-3.597 -3.906,-4.235 -2.268,-0.687 -4.58,-1.172 -6.981,-0.929"
             style="fill:#003060;fill-opacity:1;fill-rule:nonzero;stroke:none"
             id="path20" />
        </g>
        <g
           id="g22"
           transform="translate(116.3378,203.4963)">
          <path
             d="m 0,0 c -0.221,3.825 -0.034,7.638 0.867,11.348 1.172,4.828 2.712,9.525 5.018,13.985 1.776,3.436 3.859,6.624 6.209,9.665 2.785,3.605 6.051,6.736 9.631,9.528 3.298,2.571 6.856,4.781 10.644,6.535 4.22,1.954 8.656,3.263 13.248,4.165 3.575,0.702 7.167,1.045 10.76,1.032 7.546,-0.026 14.816,-1.571 21.777,-4.575 5.816,-2.509 10.97,-6.004 15.773,-10.083 0.806,-0.684 0.252,-1.084 -0.16,-1.5 C 91.764,38.074 89.73,36.079 87.716,34.064 82.868,29.213 78.03,24.353 73.177,19.506 67.538,13.874 61.894,8.247 56.237,2.634 55.558,1.96 54.951,0.707 54.156,0.793 53.41,0.874 52.782,2.031 52.101,2.714 c -6.3,6.324 -12.6,12.648 -18.905,18.967 -0.272,0.273 -0.667,0.444 -0.879,0.75 -0.645,0.93 -1.097,0.524 -1.694,-0.085 C 25.946,17.577 21.243,12.834 16.546,8.086 15.868,7.399 15.229,6.659 14.478,6.061 13.648,5.401 13.754,4.906 14.441,4.222 c 4.042,-4.019 8.057,-8.065 12.083,-12.101 7.785,-7.803 15.573,-15.602 23.353,-23.41 1.053,-1.057 2.055,-2.165 3.1,-3.231 0.704,-0.718 1.411,-0.869 2.209,-0.051 3.638,3.724 7.282,7.441 10.957,11.128 4.182,4.194 8.406,8.346 12.599,12.53 3.717,3.708 7.413,7.437 11.123,11.151 4.226,4.231 8.454,8.458 12.687,12.681 1.776,1.771 3.563,3.532 5.354,5.288 0.57,0.559 0.965,1.224 1.451,-0.244 1.698,-5.126 2.671,-10.327 2.855,-15.747 0.196,-5.77 -0.353,-11.412 -1.812,-16.969 -1.598,-6.088 -4.283,-11.697 -7.764,-16.931 -2.484,-3.736 -5.276,-7.233 -8.634,-10.206 -3.605,-3.192 -7.505,-5.973 -11.855,-8.136 -4.489,-2.232 -9.163,-3.916 -13.998,-5.123 -2.41,-0.601 -4.906,-0.97 -7.415,-1.002 -1.934,-0.024 -3.839,-0.384 -5.786,-0.324 -7.264,0.222 -14.318,1.613 -20.963,4.464 -7.726,3.315 -14.474,8.18 -20.019,14.548 -4.788,5.498 -8.623,11.562 -11,18.555 C 0.871,-12.742 -0.37,-6.512 0,0"
             style="fill:#003060;fill-opacity:1;fill-rule:nonzero;stroke:none"
             id="path24" />
        </g>
        <g
           id="g26"
           transform="translate(84.6245,24.7763)">
          <path
             d="m 0,0 c -0.125,0.527 -0.105,1.282 -0.455,1.772 -1.651,2.307 -2.823,4.882 -4.233,7.322 -2.707,4.683 -5.348,9.405 -8.01,14.115 -2.626,4.644 -5.225,9.303 -7.869,13.937 -2.608,4.57 -5.296,9.094 -7.877,13.679 -3.037,5.395 -5.931,10.872 -9.053,16.217 -0.541,0.927 -1.698,1.744 -3.201,0.862 -3.787,-2.223 -7.684,-4.259 -11.481,-6.465 -2.712,-1.576 -2.667,-1.696 -1.271,-4.569 0.343,-0.707 0.594,-1.429 1.04,-2.114 1.574,-2.423 3.002,-4.958 4.367,-7.49 2.118,-3.926 4.36,-7.774 6.574,-11.641 1.96,-3.423 3.888,-6.864 5.817,-10.304 2.027,-3.616 4.011,-7.255 6.062,-10.857 2.066,-3.626 4.228,-7.198 6.278,-10.833 2.156,-3.823 4.198,-7.709 6.352,-11.533 0.848,-1.505 2.083,-1.849 3.673,-0.941 3.748,2.141 7.536,4.214 11.299,6.329 C -1.022,-1.972 -0.068,-1.39 0,0 m 87.878,60.681 c 0.26,5.256 -3.882,7.921 -7.307,8.4 -4.285,0.6 -8.348,1.916 -12.489,2.992 -4.345,1.129 -8.567,2.653 -12.831,4.051 -5.839,1.914 -11.623,3.978 -17.373,6.114 -5.414,2.012 -10.793,2.373 -16.246,0.689 -5.193,-1.603 -9.806,-4.49 -14.498,-7.147 -4.642,-2.629 -9.152,-5.49 -13.757,-8.187 -4.593,-2.69 -9.199,-5.36 -13.868,-7.914 -1.497,-0.818 -1.548,-1.749 -0.833,-2.992 1.075,-1.869 2.239,-3.687 3.297,-5.565 2.601,-4.616 5.158,-9.257 7.741,-13.884 1.548,-2.773 3.095,-5.547 4.674,-8.302 1.565,-2.732 3.217,-5.414 4.73,-8.173 0.593,-1.08 1.249,-0.932 1.882,-0.292 1.213,1.224 2.856,1.805 4.279,2.558 1.629,0.862 3.061,2.275 5.304,2.2 3.296,-0.11 6.21,-1.512 9.3,-2.235 6.488,-1.518 12.908,-3.363 19.354,-5.074 6.66,-1.768 13.314,-3.56 19.967,-5.351 4.415,-1.188 8.822,-2.389 13.259,-3.5 6.056,-1.516 11.759,-1.006 17.405,1.773 2.28,1.122 4.38,2.479 6.542,3.754 4.207,2.48 8.35,5.069 12.507,7.632 3.446,2.125 6.865,4.294 10.316,6.412 4.163,2.556 8.356,5.064 12.52,7.62 3.512,2.156 6.989,4.367 10.501,6.522 4.104,2.518 8.239,4.987 12.342,7.506 5.469,3.358 10.94,6.714 16.372,10.131 3.027,1.905 6.495,3.396 7.04,7.674 0.877,6.888 -1.954,11.566 -9.314,11.587 -6.357,0.018 -11.944,-2.947 -17.372,-5.926 -4.611,-2.53 -9.052,-5.368 -13.587,-8.038 -3.726,-2.193 -7.476,-4.344 -11.223,-6.501 -3.427,-1.973 -6.875,-3.909 -10.294,-5.896 -3.618,-2.102 -7.217,-4.235 -10.815,-6.37 -3.333,-1.978 -6.925,-3.521 -10.691,-4.097 -8.374,-1.279 -16.611,0.228 -24.696,2.332 -5.325,1.386 -10.644,2.831 -15.925,4.408 -2.336,0.698 -4.637,1.726 -7.119,1.978 -2.418,0.245 -4.634,2.69 -4.446,4.873 0.233,2.715 2.196,4.337 5.19,3.975 5.355,-0.646 10.362,-2.723 15.562,-4.029 4.785,-1.201 9.477,-2.785 14.375,-3.512 5.709,-0.848 10.393,1.639 10.225,7.804 m 7.337,-8.328 c 5.276,1.902 9.6,4.765 14.032,7.437 3.341,2.014 6.761,3.895 10.14,5.845 4.625,2.668 9.246,5.342 13.867,8.018 6.48,3.753 12.746,7.918 19.562,11.036 5.488,2.511 11.189,4.389 17.446,3.916 6.532,-0.493 11.605,-3.234 14.727,-9.037 3.965,-7.37 2.869,-15.757 -2.393,-21.933 -2.195,-2.576 -5.44,-3.954 -8.293,-5.746 -4.391,-2.759 -8.818,-5.462 -13.246,-8.162 -5.41,-3.297 -10.853,-6.542 -16.254,-9.854 -4.189,-2.569 -8.328,-5.22 -12.506,-7.807 -4.337,-2.685 -8.699,-5.331 -13.043,-8.007 -3.379,-2.081 -6.726,-4.216 -10.125,-6.266 C 102.898,8.036 97.059,3.51 90.15,1.045 84.228,-1.069 78.06,-1.658 71.813,-0.133 64.622,1.622 57.493,3.589 50.363,5.577 43.864,7.389 37.329,9.095 30.805,10.819 24.569,12.467 18.324,14.086 12.105,15.801 10.305,16.297 9.498,14.445 8.013,14.167 7.495,14.07 7.075,13.504 6.587,13.188 4.017,11.521 4.066,11.559 5.812,8.826 8.25,5.01 10.026,1.071 8.499,-3.677 7.701,-6.159 6.237,-8.096 4.134,-9.334 c -5.095,-2.999 -10.089,-6.22 -15.522,-8.583 -3.868,-1.682 -9.525,0.11 -12.021,3.68 -2.697,3.856 -4.749,8.067 -7.027,12.159 -3.197,5.744 -6.627,11.358 -9.881,17.07 -2.644,4.641 -5.143,9.365 -7.768,14.016 -2.627,4.654 -5.423,9.213 -7.973,13.907 -2.273,4.185 -4.923,8.169 -6.807,12.561 -1.703,3.971 0.045,9.621 3.504,12.048 3.905,2.74 8.212,4.747 12.312,7.128 1.846,1.072 3.658,2.053 5.736,2.493 4.115,0.87 8.961,-1.233 11.038,-4.87 0.54,-0.946 1.362,-1.645 1.778,-2.727 1.127,-2.939 2.053,-3.035 4.729,-1.435 5.68,3.397 11.47,6.611 17.186,9.949 4.541,2.652 9.008,5.431 13.563,8.057 6.929,3.995 14.223,7.067 22.358,7.125 3.397,0.024 6.779,-0.803 10.039,-1.961 9.072,-3.222 18.089,-6.632 27.281,-9.474 5.38,-1.663 10.901,-2.961 16.481,-4.042 5.162,-1.001 9.173,-4.227 11.887,-9.12 2.541,-4.579 2.335,-11.779 0.188,-16.294"
             style="fill:#003060;fill-opacity:1;fill-rule:nonzero;stroke:none"
             id="path28" />
        </g>
        <g
           id="g30"
           transform="translate(64.0417,81.9218)">
          <path
             d="m 0,0 c -0.01,-1.955 -1.672,-3.674 -3.597,-3.72 -1.886,-0.045 -3.748,1.886 -3.758,3.899 -0.01,2.038 1.762,3.754 3.825,3.704 C -1.278,3.829 0.012,2.409 0,0"
             style="fill:#003060;fill-opacity:1;fill-rule:nonzero;stroke:none"
             id="path32" />
        </g>
      </g>
    </g>
  </g>
</svg>
