<svg width="683" height="480" viewBox="0 0 683 480" fill="none" xmlns="http://www.w3.org/2000/svg">
<path d="M683 480H0C57.3261 441.667 203.098 365 327.578 365C452.058 365 616.393 441.667 683 480Z" fill="url(#paint0_linear_1208_915)"/>
<path d="M290.061 120.692C292.963 117.801 297.18 117.144 301.103 117.291C326.452 117.665 351.802 117.586 377.14 118.425C383.171 118.765 389.406 117.767 395.279 119.389C400.709 121.259 404.609 127.03 403.668 132.834C402.001 152.821 400.936 172.876 399.541 192.92C395.936 187.172 392.365 181.413 388.737 175.688C387.309 173.647 385.778 170.733 382.819 171.153C353.774 170.926 324.733 170.461 295.695 169.758C288.893 169.033 282.919 162.605 283.531 155.644C283.984 147.992 285.152 140.407 285.742 132.766C286.07 128.526 286.433 123.595 290.061 120.692ZM302.713 134.365C302.792 136.451 302.872 138.525 302.94 140.623C300.672 140.192 298.473 139.693 296.251 139.205L296.115 143.479C297.838 143.774 299.516 144.103 301.307 144.454C300.173 146.268 299.04 148.082 297.997 149.907C299.368 150.418 300.729 150.939 302.101 151.472C303.008 149.885 303.922 148.305 304.844 146.733C305.842 148.275 306.205 150.452 307.882 151.438L311.374 150.361C310.309 148.286 309.186 146.257 308.087 144.205C309.885 144.092 311.699 144.001 313.528 143.933C313.449 142.538 313.381 141.155 313.324 139.772L306.851 140.611C306.998 138.559 307.168 136.53 307.35 134.489L302.713 134.365ZM322.881 134.659C322.972 136.768 323.074 138.888 323.142 141.008C320.965 140.566 318.8 140.112 316.612 139.693C316.43 141.087 316.238 142.493 316.045 143.899C317.916 144.024 319.786 144.16 321.657 144.352C320.523 146.314 319.389 148.252 318.256 150.214L321.918 151.914L324.865 147.379C325.897 148.978 326.928 150.599 327.994 152.186L331.543 150.1C330.409 148.354 329.355 146.631 328.278 144.897C330.137 144.636 331.996 144.375 333.855 144.092C333.719 142.731 333.595 141.371 333.47 140.01C331.202 140.282 328.969 140.57 326.77 140.872C326.917 138.854 327.076 136.847 327.201 134.852C325.738 134.75 324.298 134.705 322.881 134.659ZM342.879 134.829C342.879 136.915 342.879 139.001 342.97 141.099C340.896 140.645 338.821 140.237 336.746 139.908C336.61 141.314 336.485 142.72 336.372 144.137L341.712 144.987C340.597 146.588 339.578 148.253 338.662 149.975C339.524 151.291 341.088 151.699 342.415 152.379L344.682 147.459C345.816 149.159 346.949 150.86 348.083 152.594C349.047 151.733 350.35 151.177 350.974 149.987C350.316 148.252 349.421 146.586 348.616 144.965L353.91 144.59C353.797 143.06 353.695 141.541 353.582 140.056C351.314 140.441 349.047 140.872 346.859 141.291C347.063 139.205 347.301 137.119 347.528 135.033L342.879 134.829ZM362.946 135.34C363.059 137.494 363.173 139.636 363.275 141.79C361.007 141.246 358.796 140.657 356.54 140.203C356.54 141.212 356.427 143.241 356.382 144.25C358.014 144.715 359.715 144.953 361.393 145.271C360.398 147.298 359.568 149.402 358.91 151.563L363.002 152.164C363.535 150.633 364.079 149.114 364.635 147.629C365.769 149.341 366.902 151.03 368.036 152.798L371.494 151.03C370.61 149.205 369.68 147.391 368.784 145.577C370.542 145.169 372.333 144.863 374.056 144.296C373.795 142.935 373.512 141.586 373.183 140.26C371.199 140.815 369.215 141.393 367.231 141.892C367.231 139.761 367.344 137.618 367.458 135.487L362.946 135.34ZM383.137 135.476C383.261 137.607 383.386 139.738 383.522 141.881C381.312 141.393 379.101 140.883 376.89 140.407C376.765 141.473 376.493 143.604 376.369 144.67C378.137 145.033 379.917 145.418 381.697 145.804C380.654 147.515 379.6 149.205 378.568 150.939L382.411 153.036C383.296 151.393 384.18 149.749 385.075 148.128C386.209 149.737 387.229 151.381 388.306 153.025L391.98 151.087C390.846 149.42 389.712 147.753 388.658 146.098C390.415 145.667 392.184 145.248 393.952 144.851C393.952 143.559 393.85 142.266 393.805 140.974C391.696 141.269 389.599 141.632 387.501 142.017C387.501 139.897 387.501 137.788 387.501 135.68L383.137 135.476Z" fill="white"/>
<path d="M290.662 4.98823C292.68 3.3217 294.721 1.67786 296.739 0C298.535 1.74998 300.083 3.7372 301.341 5.90651C299.753 7.75789 298.053 9.5108 296.251 11.1555C294.242 9.23712 292.374 7.17599 290.662 4.98823Z" fill="#18407E"/>
<path d="M243.353 17.9009C257.49 20.8371 269.043 34.9062 267.864 49.5422C266.265 45.8577 266.152 41.731 264.542 38.0579C262.081 32.2431 258.02 27.2464 252.831 23.6487C249.781 21.506 245.881 20.7124 243.353 17.9009Z" fill="#18407E"/>
<path d="M270.823 22.9002C273.181 19.4198 276.888 17.2317 279.983 14.4429C282.915 17.4409 285.646 20.6298 288.157 23.9886C285.039 26.7548 281.933 29.5549 278.69 32.1738C275.877 29.2499 273.249 26.1526 270.823 22.9002Z" fill="#ED1E24"/>
<path d="M441.442 82.9975C438.96 82.7934 436.477 82.7481 433.994 82.7254C434.402 78.1907 434.663 73.4858 433.473 68.9964C387.479 67.8627 341.474 67.6587 295.48 66.661C292.34 66.7744 288.916 66.1282 286.025 67.6473C285.301 68.846 284.737 70.1342 284.347 71.4792L281.218 71.9327C281.898 73.928 282.582 75.9233 283.27 77.9186L276.842 77.3857C277.976 68.7924 277.749 60.0856 279.109 51.5263C280.561 43.375 288.394 37.3211 296.557 37.2531C321.906 37.1624 347.221 38.3188 372.571 38.3188C392.977 38.2508 413.384 39.2598 433.79 39.3504C437.69 43.3977 442.44 47.683 442.723 53.7143C443.211 63.498 442.191 73.3044 441.442 82.9975Z" fill="#1A498B"/>
<path d="M433.813 39.3506C438.813 39.6907 444.22 38.591 448.834 41.0851C451.375 42.334 453.514 44.2714 455.007 46.6767C456.501 49.0819 457.288 51.8583 457.28 54.6894C457.042 66.0263 455.364 77.3632 454.832 88.7001C451.016 85.552 446.377 83.565 441.465 82.975C440.774 73.1686 443.234 63.4755 442.746 53.6918C442.44 47.6832 437.69 43.3865 433.813 39.3506Z" fill="#143C75"/>
<path d="M428.462 223.495C433.679 223.714 438.893 222.996 443.857 221.375C443.37 233.846 442.009 246.316 441.136 258.719C438.948 285.19 436.953 311.673 434.708 338.134C434.278 345.967 433.405 353.756 432.917 361.578C432.543 364.979 432.373 368.46 431.942 371.895C431.387 376.35 428.632 380.092 425.73 383.357C421.358 386.066 416.279 387.416 411.139 387.234L409.223 384.774C412.624 381.282 416.263 377.597 417.159 372.632C418.667 365.036 418.474 357.236 419.37 349.573C420.764 337.374 421.376 325.108 422.419 312.886C423.802 301.096 423.95 289.204 425.424 277.425C426.807 267.38 425.514 257.222 426.784 247.166C426.605 239.241 427.166 231.316 428.462 223.495Z" fill="#143C75"/>
<path d="M220.351 59.2579C223.044 56.0309 226.227 53.246 229.783 51.0046C232.744 53.8429 235.393 56.9898 237.685 60.3916C234.89 63.3836 231.819 66.1052 228.513 68.5202C225.315 65.8887 222.559 62.7616 220.351 59.2579Z" fill="#DFF1FF"/>
<path d="M286.025 67.6475C288.916 66.1284 292.34 66.7746 295.48 66.6612C341.474 67.6588 387.479 67.9082 433.473 68.9966C434.663 73.5313 434.403 78.1455 433.995 82.7256C416.173 82.6689 398.351 82.3401 380.53 82.2041C348.322 81.0704 316.079 81.5919 283.871 80.4355C283.996 77.4426 284.098 74.4496 284.348 71.4794C284.737 70.1344 285.301 68.8461 286.025 67.6475Z" fill="#CDE6FF"/>
<path d="M281.218 71.9325L284.347 71.479C284.098 74.4493 283.996 77.4422 283.871 80.4351C281.366 80.4351 278.871 80.3785 276.389 80.3785C276.536 79.3695 276.695 78.3718 276.842 77.3855L283.27 77.9184C282.582 75.9231 281.898 73.9278 281.218 71.9325Z" fill="#2469B1"/>
<path d="M454.321 95.5359L460.443 95.9214C458.913 93.2562 457.003 90.8275 454.775 88.7111C450.959 85.563 446.32 83.576 441.409 82.986C438.926 82.7819 436.443 82.7366 433.96 82.7139C416.139 82.6572 398.317 82.3284 380.495 82.1924C348.287 81.0587 316.045 81.5802 283.837 80.4238C281.332 80.4238 278.837 80.3671 276.355 80.3671C265.891 79.4715 255.132 86.3417 252.457 96.6469C250.586 104.583 251.005 112.723 250.484 120.749C248.432 146.325 247.083 171.969 245.337 197.579C244.725 209.245 254.27 219.471 265.596 221.024C267.863 221.081 270.04 221.024 272.273 221.024C286.445 220.627 300.616 221.829 314.741 221.682C334.774 222.044 354.817 221.806 374.827 222.679C390.699 222.917 406.57 222.895 422.442 223.291L428.428 223.45C433.654 223.687 438.88 222.985 443.857 221.375C445.595 220.249 447.261 219.014 448.846 217.68L445.297 215.888C447.19 212.202 448.173 208.117 448.165 203.973C447.814 199.779 451.442 197.103 453.947 194.314L447.565 194.938C448.256 191.333 449.276 187.569 448.233 183.93C447.009 179.395 445.365 174.86 445.547 170.099C445.218 164.952 446.918 160.043 448.029 155.1C448.948 151.869 446.51 149.114 445.172 146.416C448.301 136.213 445.456 124.502 451.782 115.296C450.807 112.757 449.14 110.126 449.889 107.304C450.875 103.222 452.757 99.4245 454.321 95.5359ZM403.702 132.948C402.036 152.935 400.97 172.99 399.575 193.033C395.97 187.285 392.399 181.526 388.771 175.801C387.343 173.76 385.812 170.847 382.854 171.266C353.808 171.04 324.767 170.575 295.73 169.872C288.927 169.146 282.953 162.718 283.565 155.757C284.018 148.105 285.186 140.521 285.776 132.88C286.07 128.606 286.456 123.674 290.061 120.772C292.963 117.881 297.181 117.223 301.103 117.371C326.452 117.745 351.802 117.666 377.14 118.504C383.171 118.845 389.406 117.847 395.279 119.468C400.743 121.327 404.643 127.098 403.702 132.948Z" fill="#003D79"/>
<path d="M454.321 95.5361L460.443 95.9216C464.32 105.569 461.067 115.931 461.225 125.942C459.65 147.051 458.539 168.183 457.076 189.292C456.623 199.11 457.076 210.651 448.846 217.634L445.297 215.843C447.19 212.157 448.173 208.072 448.165 203.928C447.814 199.734 451.442 197.058 453.947 194.269L447.564 194.893C448.256 191.288 449.276 187.524 448.233 183.885C447.009 179.35 445.365 174.815 445.547 170.054C445.218 164.907 446.918 159.998 448.029 155.055C448.948 151.824 446.51 149.069 445.172 146.371C448.301 136.168 445.456 124.457 451.782 115.251C450.807 112.712 449.14 110.081 449.889 107.258C450.875 103.223 452.757 99.4247 454.321 95.5361Z" fill="#003D79"/>
<path d="M243.058 122.45C245.394 119.903 247.703 117.333 249.985 114.741C250.189 116.736 250.405 118.743 250.518 120.761C248.466 146.337 247.117 171.981 245.371 197.591C244.759 209.256 254.305 219.482 265.63 221.035C262.116 256.18 259.962 291.472 256.855 326.661L255.586 327.795C229.397 305.903 212.505 273.673 207.733 240.013C204.655 219.026 206.224 197.619 212.328 177.305C218.432 156.991 228.923 138.265 243.058 122.45Z" fill="#DEF1FF"/>
<path d="M461.225 125.953C466.973 129.751 470.193 136.009 473.923 141.575C499.669 181.697 503.421 234.731 483.695 278.06C477.781 291.687 469.746 304.291 459.888 315.404C452.825 324.349 443.665 331.208 434.742 338.078C437.01 311.617 438.982 285.135 441.17 258.663C442.043 246.192 443.438 233.801 443.891 221.319C445.629 220.192 447.295 218.958 448.88 217.623C457.076 210.606 456.657 199.065 457.11 189.281C458.539 168.194 459.65 147.062 461.225 125.953Z" fill="#DEF1FF"/>
<path d="M302.713 134.365L307.35 134.49C307.169 136.531 306.999 138.56 306.851 140.612L313.325 139.773C313.325 141.156 313.449 142.539 313.529 143.934C311.707 144.002 309.893 144.092 308.087 144.206C309.221 146.258 310.354 148.287 311.375 150.362L307.883 151.439C306.205 150.452 305.842 148.276 304.845 146.734C303.923 148.306 303.008 149.885 302.101 151.473C300.729 150.94 299.369 150.418 297.997 149.908C299.131 148.083 300.208 146.269 301.308 144.455C299.573 144.104 297.838 143.775 296.115 143.48L296.251 139.206C298.519 139.694 300.695 140.192 302.94 140.623C302.872 138.526 302.793 136.451 302.713 134.365Z" fill="#1C488A"/>
<path d="M362.946 135.34L367.481 135.453C367.367 137.585 367.288 139.727 367.254 141.859C369.238 141.337 371.222 140.782 373.206 140.226C373.535 141.552 373.818 142.902 374.079 144.262C372.356 144.829 370.564 145.135 368.807 145.543C369.703 147.357 370.632 149.171 371.517 150.996L368.059 152.765C366.925 151.03 365.791 149.307 364.658 147.595C364.102 149.114 363.524 150.633 363.025 152.13L358.933 151.529C359.591 149.369 360.421 147.264 361.415 145.237C359.738 144.92 358.014 144.681 356.405 144.217C356.405 143.208 356.529 141.178 356.563 140.169C358.831 140.646 361.098 141.212 363.297 141.757C363.173 139.637 363.059 137.483 362.946 135.34Z" fill="#1C488A"/>
<path d="M322.881 134.66C324.298 134.66 325.738 134.75 327.167 134.818C327.042 136.814 326.883 138.82 326.736 140.838C329.003 140.536 331.237 140.249 333.436 139.977C333.561 141.337 333.685 142.698 333.821 144.058C331.962 144.341 330.103 144.602 328.244 144.863C329.321 146.597 330.409 148.321 331.509 150.067L327.96 152.152C326.895 150.565 325.863 148.944 324.831 147.346L321.884 151.88L318.222 150.18C319.356 148.219 320.489 146.28 321.623 144.319C319.752 144.126 317.882 143.99 316.011 143.865C316.204 142.459 316.397 141.054 316.578 139.659C318.766 140.079 320.931 140.532 323.108 140.974C323.074 138.888 322.972 136.768 322.881 134.66Z" fill="#1C498A"/>
<path d="M342.88 134.83L347.517 135C347.29 137.086 347.052 139.172 346.848 141.258C349.115 140.838 351.326 140.407 353.571 140.022C353.684 141.541 353.786 143.06 353.9 144.557L348.605 144.931C349.41 146.586 350.306 148.218 350.963 149.953C350.351 151.143 349.036 151.699 348.072 152.56C346.939 150.849 345.805 149.159 344.671 147.425L342.404 152.345C341.077 151.665 339.513 151.211 338.651 149.942C339.568 148.22 340.586 146.554 341.701 144.953L336.361 144.103C336.475 142.686 336.599 141.28 336.735 139.874C338.81 140.203 340.885 140.611 342.959 141.065C342.937 139.002 342.891 136.916 342.88 134.83Z" fill="#1D4A8B"/>
<path d="M383.137 135.476L387.479 135.646C387.535 137.754 387.479 139.863 387.479 141.983C389.576 141.597 391.673 141.235 393.782 140.94C393.782 142.232 393.884 143.525 393.929 144.817C392.161 145.214 390.392 145.633 388.635 146.064C389.769 147.719 390.903 149.386 391.957 151.052L388.284 153.048C387.207 151.404 386.141 149.76 385.053 148.15C384.157 149.771 383.273 151.415 382.389 153.059L378.545 150.962C379.577 149.239 380.631 147.561 381.674 145.826C379.894 145.418 378.115 145.033 376.346 144.692C376.471 143.627 376.743 141.495 376.867 140.43C379.078 140.906 381.289 141.416 383.5 141.904C383.386 139.75 383.261 137.607 383.137 135.476Z" fill="#1D498A"/>
<path d="M265.63 221.035C267.897 221.092 270.074 221.035 272.307 221.035C270.04 255.907 266.775 290.734 264.145 325.584C263.839 331.252 262.569 336.864 263.431 342.487C265.437 344.925 268.838 344.29 271.616 344.471C293.553 344.347 315.456 345.48 337.37 345.446C359.284 345.412 381.278 346.228 403.237 346.58C406.264 346.523 409.609 346.977 412.307 345.163C414.438 335.515 414.053 325.493 415.266 315.687L418.032 316.254C419.506 315.112 420.987 313.979 422.476 312.853C421.433 325.074 420.821 337.34 419.426 349.539C418.531 357.203 418.723 365.002 417.216 372.598C416.286 377.564 412.613 381.248 409.28 384.74L411.139 387.234C383.556 386.463 355.974 386.293 328.38 385.976C312.043 385.159 295.684 385.431 279.336 385.091C274.337 384.91 269.213 385.477 264.338 384.071C261.073 383.141 258.522 380.783 255.914 378.743C253.936 373.777 253.264 368.386 253.964 363.086C254.947 350.941 255.911 338.799 256.855 326.661C259.95 291.471 262.116 256.18 265.63 221.035Z" fill="#1A488A"/>
<path d="M272.308 221.07C286.479 220.673 300.65 221.874 314.776 221.727C334.808 222.09 354.852 221.852 374.861 222.725C390.733 222.963 406.604 222.94 422.476 223.337C420.209 254.139 417.59 284.908 415.232 315.71C414.019 325.494 414.404 335.516 412.273 345.186C409.62 347 406.276 346.546 403.203 346.603C381.244 346.286 359.307 345.537 337.336 345.469C315.365 345.401 293.508 344.336 271.582 344.494C268.805 344.313 265.403 344.948 263.397 342.51C262.535 336.842 263.805 331.173 264.111 325.607C266.775 290.769 270.052 255.942 272.308 221.07Z" fill="#DEF1FF"/>
<path d="M422.476 223.337L428.462 223.496C427.175 231.318 426.62 239.243 426.807 247.168C425.537 257.223 426.807 267.381 425.447 277.426C423.973 289.205 423.826 301.097 422.442 312.887C420.931 313.998 419.45 315.132 417.998 316.289L415.232 315.722C417.59 284.863 420.209 254.14 422.476 223.337Z" fill="#1A488A"/>
<path d="M377.396 49.2412L342.485 48.5952C339.555 48.541 337.136 50.8721 337.082 53.8018C337.028 56.7316 339.359 59.1505 342.288 59.2048L377.2 59.8507C380.13 59.9049 382.549 57.5738 382.603 54.6441C382.657 51.7143 380.326 49.2954 377.396 49.2412Z" fill="#365E99"/>
<path d="M319.152 58.3511C322.67 58.3511 325.523 55.4985 325.523 51.9797C325.523 48.4609 322.67 45.6084 319.152 45.6084C315.633 45.6084 312.78 48.4609 312.78 51.9797C312.78 55.4985 315.633 58.3511 319.152 58.3511Z" fill="#365E99"/>
<defs>
<linearGradient id="paint0_linear_1208_915" x1="341.5" y1="365" x2="341.5" y2="480" gradientUnits="userSpaceOnUse">
<stop stop-color="#5EBAFF"/>
<stop offset="1" stop-color="white" stop-opacity="0"/>
</linearGradient>
</defs>
</svg>
