<svg width="683" height="602" viewBox="0 0 683 602" fill="none" xmlns="http://www.w3.org/2000/svg">
<path d="M683 602H0C57.3261 563.667 203.098 487 327.578 487C452.058 487 616.393 563.667 683 602Z" fill="url(#paint0_linear_1208_914)"/>
<g clip-path="url(#clip0_1208_914)">
<path d="M267.063 264.368C273.922 250.431 289.695 250.31 302.98 248.208C307.11 250.431 311.289 252.508 315.468 254.609C299.936 254.271 298.173 271.058 295.009 282.532C294.188 285.623 293.366 288.739 292.594 291.903C292.28 293.739 291.7 297.411 291.386 299.15C290.879 302.7 290.347 306.227 289.768 309.778C288.776 315.635 287.232 321.385 285.154 326.951C283.077 332.441 279.582 337.283 275.025 340.983C270.468 344.682 265.012 347.108 259.212 348.014C260.686 345.332 262.183 342.651 263.705 339.994C255.01 336.323 242.981 341.878 236.435 333.787C231.049 323.256 230.397 311.009 228.029 299.584C248.802 301.952 259.092 279.754 267.063 264.368Z" fill="#122E50"/>
<path d="M280.734 246.397C287.98 242.846 296.265 244.488 302.98 248.305C289.695 250.406 273.995 250.527 267.062 264.464C259.43 265.551 256.918 275.551 251.024 279.85C241.99 289.391 222.039 295.575 213.947 281.976C221.846 284.778 230.469 288.352 238.633 284.101C256.169 275.623 262.135 253.305 280.734 246.397Z" fill="#82869B"/>
<path d="M315.467 254.609C319.187 254.609 321.264 259.681 321.313 262.991C318.732 269.153 315.83 275.176 312.617 281.034C306.748 281.444 300.878 282.121 295.009 282.531C298.173 271.058 299.936 254.271 315.467 254.609Z" fill="#F7C9C0"/>
<path d="M321.313 262.991C328.414 259.561 338.221 254.826 344.911 261.783C350.926 267.363 346.916 275.744 342.762 281.106C335.515 287.362 325.854 286.179 317.351 284.005C317.942 287.685 317.622 291.453 316.421 294.981C315.219 298.508 313.172 301.688 310.458 304.243C307.744 306.797 304.446 308.648 300.852 309.634C297.258 310.619 293.477 310.71 289.84 309.898C290.42 306.347 290.951 302.821 291.458 299.27C291.748 300.526 292.304 303.062 292.593 304.343C303.076 306.468 313.124 298.715 311.917 287.7C304.912 284.802 298.125 287.362 292.593 291.927C293.294 288.763 294.115 285.647 295.009 282.555C300.878 282.145 306.748 281.469 312.617 281.058C315.831 275.192 318.733 269.161 321.313 262.991V262.991ZM321.554 280.213C330.999 283.763 344.67 277.797 343.124 266.3C334.67 256.904 318.318 268.691 321.554 280.213Z" fill="#7F96C8"/>
<path d="M321.554 280.212C318.221 268.715 334.573 256.928 343.124 266.299C344.767 277.797 331.216 283.739 321.554 280.212Z" fill="#F6CBCA"/>
<path d="M317.351 283.98C325.902 286.154 335.564 287.337 342.762 281.081C347.595 288.371 350.829 296.603 352.248 305.234C353.668 313.865 353.242 322.699 350.998 331.153C355.685 329.655 360.282 327.889 364.766 325.863C361.046 311.202 355.998 294.825 363.365 280.453C364.597 282.869 365.781 285.139 367.085 287.482C369.621 285.067 372.157 282.651 374.742 280.236C374.742 297.289 372.206 314.607 379.09 330.791C370.612 340.935 357.085 345.573 348.921 356.08C347.882 358.737 347.641 363.326 350.612 364.824C372.351 375.862 396.167 384.968 413.413 402.746L414.741 404.123C407.995 409.52 401.761 415.528 396.118 422.069C393.703 424.002 391.287 425.861 389.017 427.745C382.012 421.031 375.418 413.905 369.066 406.586C362.543 397.813 355.442 389.486 347.81 381.659C340.313 374.358 332.235 367.677 323.656 361.684C324.139 355.041 324.767 348.447 325.516 341.829C311.313 340.404 300.878 328.206 287.11 327.167H285.323C287.401 321.602 288.945 315.851 289.937 309.994C293.579 310.793 297.361 310.688 300.953 309.688C304.545 308.688 307.838 306.823 310.542 304.257C313.247 301.69 315.282 298.5 316.469 294.965C317.656 291.43 317.959 287.659 317.351 283.98V283.98Z" fill="#FDC6BB"/>
<path d="M292.569 291.902C298.101 287.337 304.888 284.656 311.893 287.675C313.028 298.69 302.98 306.443 292.569 304.318C292.28 303.037 291.724 300.501 291.434 299.245C291.772 297.41 292.352 293.738 292.569 291.902Z" fill="#F5C9C3"/>
<path d="M287.111 327.047C300.878 328.086 311.265 340.284 325.516 341.709C324.767 348.327 324.139 354.921 323.656 361.564C323.414 366.395 323.366 371.225 323.39 376.056C312.183 382.988 299.236 381.418 287.98 375.815C289.716 359.586 289.424 343.204 287.111 327.047V327.047Z" fill="#F8B2A6"/>
<path d="M250.831 381.105C262.062 374.607 275.516 375.501 287.98 375.718C299.308 381.322 312.134 382.965 323.39 375.96C331.814 376.321 340.096 378.255 347.81 381.66C355.411 389.505 362.479 397.849 368.969 406.636C371.046 414.993 379.548 421.346 377.616 430.524C374.911 448.64 390.466 461.925 398.268 476.586C404.91 483.446 401.746 493.204 404.717 501.393L404.935 502.262C373.824 501.369 342.689 501.924 311.579 502.093C308.269 500.451 305.081 498.591 301.917 496.803C291.217 490.958 279.719 486.731 268.705 481.562C264.067 474.533 256.893 469.799 251.797 463.277C250.517 452.625 256.869 442.384 254.623 431.684C252.377 420.983 250.251 407.53 260.082 399.704C266.193 395.09 261.483 387.312 260.492 381.371C254.188 391.032 248.85 401.346 242.546 411.032C230.855 429.945 232.449 452.988 227.522 473.833C222.212 473.884 216.917 474.409 211.701 475.403C233.029 484.002 258.125 489.364 274.502 506.199C277.352 504.436 280.202 502.721 283.028 500.958C288.978 503.621 295.075 505.943 301.289 507.914C301.289 514.75 301.844 521.61 301.7 528.47C286.434 528.083 270.879 524.387 255.807 528.784C243.512 532.697 230.735 528.18 218.247 529.895C209.31 530.547 199.576 533.542 191.218 528.88C180.808 523.711 174.31 513.76 166.122 505.91C163.08 506.495 160.085 507.303 157.161 508.325C155.712 504.436 154.262 500.571 152.982 496.658C159.552 476.127 172.74 458.302 185.204 440.935C203.368 417.457 224.551 395.452 250.831 381.105Z" fill="#068DF0"/>
<path d="M242.401 410.911C248.705 401.25 254.043 390.936 260.348 381.25C261.338 387.192 266.048 394.97 259.937 399.583C250.106 407.385 252.522 420.79 254.478 431.563C256.435 442.336 250.372 452.505 251.652 463.157C256.821 469.678 263.995 474.413 268.56 481.442C254.913 478.398 241.193 475.524 227.305 473.833C232.305 452.867 230.71 429.824 242.401 410.911Z" fill="#0571F1"/>
<path d="M413.34 402.674C439.209 402.384 461.479 417.456 482.131 431.224C506.286 447.045 520.609 475.281 524.763 503.083L522.879 501.754C519.909 492.092 508.628 484.121 510.368 473.88L503.556 473.397L506.213 470.378C494.281 464.17 491.721 449.315 480.127 442.77C459.692 427.818 441.48 406.538 414.669 404.123L413.34 402.674Z" fill="#2DA5F3"/>
<path d="M396.022 421.998C401.665 415.456 407.899 409.449 414.645 404.051C441.432 406.612 459.668 427.819 480.103 442.698C491.648 449.244 494.257 464.099 506.189 470.306L503.532 473.325L510.344 473.809C508.604 484.05 520.005 492.117 522.855 501.682C523.411 506.634 524.474 515.909 517.01 515.595C502.518 516.127 487.107 518.518 473.533 512.141C455.968 503.776 439.075 494.07 423.002 483.108C407.688 472.673 399.742 455.113 392.35 438.761C389.017 433.012 394.017 427.239 396.022 421.998Z" fill="#058DF0"/>
<path d="M377.616 430.404C379.548 421.225 371.046 414.872 368.969 406.515C375.321 413.761 381.916 421.008 388.92 427.674C391.336 425.79 393.751 423.93 396.022 421.998C393.993 427.239 389.017 433.012 392.229 438.906C399.621 455.258 407.567 472.722 422.881 483.253C438.955 494.198 455.849 503.888 473.412 512.238C487.107 518.615 502.397 516.223 516.889 515.692C524.353 516.006 523.29 506.731 522.734 501.779L524.619 503.108C527.831 506.948 525.391 513.132 525.536 517.842C509.549 521.835 492.842 521.968 476.793 518.228C452.639 510.499 426.383 504.968 406.746 488.06C406.046 492.48 405.297 496.876 404.596 501.296C401.625 493.108 404.79 483.35 398.147 476.49C390.466 461.732 374.911 448.519 377.616 430.404Z" fill="#0676EF"/>
<path d="M211.556 475.401C216.772 474.408 222.067 473.882 227.377 473.831C241.266 475.522 254.985 478.396 268.632 481.44C279.647 486.609 291.144 490.836 301.844 496.681C301.555 500.425 301.289 504.145 301.192 507.913C294.978 505.942 288.882 503.619 282.932 500.956C280.106 502.719 277.255 504.434 274.405 506.198C257.98 489.362 232.884 484 211.556 475.401Z" fill="#2BA8F9"/>
<path d="M152.958 496.634C154.238 500.547 155.687 504.411 157.137 508.3C160.061 507.278 163.056 506.471 166.098 505.885C174.214 513.759 180.784 523.711 191.122 529C199.479 533.662 209.213 530.667 218.15 530.015C230.638 528.3 243.415 532.817 255.71 528.904C270.71 524.508 286.265 528.203 301.603 528.59L301.361 530.764C278.705 544.797 250.831 545.691 224.913 545.498C207.571 544.821 188.682 547.164 173.32 537.285C159.987 529 148.224 512.986 152.958 496.634Z" fill="#0777EF"/>
<path d="M301.192 507.914C301.192 504.146 301.555 500.426 301.844 496.682C305.081 498.47 308.269 500.329 311.506 501.972C324.404 508.373 337.858 515.426 352.568 515.957C370.128 513.542 387.64 498.252 405.538 507.769C422.881 517.793 443.412 516.44 462.494 519.846C459.209 523.252 454.402 523.88 450.054 525.112L456.721 529.942C445.707 539.169 429.137 537.189 418.074 529.025C412.664 525.764 408.075 519.918 401.336 519.725C393.437 522.503 387.423 529.17 379.162 531.126C353.51 538.686 327.279 527.696 301.241 530.667L301.482 528.493C301.748 521.609 301.168 514.749 301.192 507.914Z" fill="#FBC6BB"/>
</g>
<g clip-path="url(#clip1_1208_914)">
<path d="M386.099 167.992C387.632 167.36 389.298 167.117 390.947 167.286C390.457 169.564 387.941 169.366 386.223 170.085C379.381 172.406 373.205 176.356 368.226 181.593C363.248 186.83 359.617 193.198 357.646 200.15L355.803 199.906C359.377 184.951 371.613 172.717 386.099 167.992Z" fill="#27497E"/>
<path d="M286.53 156.655C286.684 156.032 286.867 155.476 287.038 154.89C304.005 159.926 316.438 177.195 315.561 194.905L313.736 194.666C313.746 188.641 312.394 182.691 309.781 177.261C307.169 171.831 303.363 167.062 298.648 163.31C295.11 160.268 290.812 158.4 286.53 156.655Z" fill="#27497E"/>
<path d="M231.802 151.31C233.848 149.773 235.876 148.198 237.829 146.578C239.97 149.123 241.931 151.809 244.026 154.382C241.669 156.563 238.999 158.356 236.572 160.473L235.729 160.139C234.035 157.738 231.948 155.643 230.369 153.177C230.612 152.405 231.119 151.744 231.802 151.31V151.31Z" fill="#27497E"/>
<path d="M346.825 24.0101C356.325 21.5958 366.392 22.9726 374.895 27.849C379.129 30.3143 382.825 33.605 385.762 37.5258C388.7 41.4466 390.82 45.9176 391.997 50.6735C392.98 54.8824 394.043 59.0646 395.028 63.2673L396.768 64.2522C391.46 64.3296 386.551 66.4884 381.33 67.0496C380.491 62.7111 379.387 58.4263 378.379 54.1318C377.463 50.4681 375.655 47.0877 373.116 44.2915C370.578 41.4953 367.387 39.37 363.829 38.1048C358.737 36.1069 353.095 36.6304 347.953 38.1501C344.774 38.9587 341.803 40.4331 339.236 42.4758C336.669 44.5185 334.565 47.0831 333.063 49.9997C330.995 54.5722 329.884 59.7909 331.036 64.762C332.039 69.1342 333.004 73.5237 334.21 77.8472L335.206 77.9611C330.834 79.0693 326.358 79.742 322.078 81.2032C321.507 81.3994 320.946 81.5847 320.385 81.8493C319.746 76.2713 317.663 70.9776 316.901 65.4156C316.24 60.615 316.533 55.7312 317.763 51.044C318.993 46.3569 321.136 41.9587 324.07 38.1016C329.672 30.7745 337.769 25.7599 346.825 24.0101V24.0101Z" fill="#FFC647"/>
<path d="M409.205 96.0367C407.292 87.7246 405.147 79.4677 403.291 71.1367C402.63 67.8997 400.427 64.4009 396.778 64.2401C391.471 64.3175 386.562 66.4763 381.34 67.0375C365.904 70.417 350.571 74.2849 335.206 77.9661C330.834 79.0743 326.358 79.747 322.077 81.2083C321.507 81.4045 320.945 81.5897 320.384 81.8544C316.954 83.0299 315.006 86.9312 315.693 90.4125C316.373 94.1896 317.493 97.8705 318.308 101.635C319.869 107.599 320.944 113.688 322.758 119.589C324.456 124.798 327.168 129.62 330.737 133.777C334.306 137.933 338.662 141.343 343.554 143.809C351.794 148.237 361.567 149.427 370.719 147.755C376.091 146.503 381.583 145.493 386.522 142.919C394.766 138.719 401.48 132.031 405.712 123.802C409.789 115.218 411.337 105.335 409.205 96.0367ZM363.099 121.25C362.662 116.198 362.197 111.145 361.666 106.096C359.507 104.961 357.367 103.164 357.199 100.551C356.433 96.6932 359.669 92.852 363.553 92.7802C367.298 92.3368 370.715 95.7123 370.732 99.3917C370.701 101.202 369.879 102.843 368.933 104.348C370.659 109.163 372.683 113.867 374.441 118.684C370.668 119.563 366.931 120.643 363.099 121.25Z" fill="#FF6F35"/>
<path d="M296.029 138.312C299.853 135.356 303.604 132.29 307.487 129.389C310.68 133.482 313.957 137.504 317.016 141.657C316.492 142.38 315.86 143.017 315.142 143.548C311.668 146.239 308.256 148.999 304.752 151.65C301.843 148.096 299.184 144.326 296.178 140.867C295.456 140.206 294.881 138.894 296.029 138.312Z" fill="#FF7036"/>
<path d="M327.402 192.091C329.205 190.697 330.974 189.252 332.805 187.883C334.31 189.814 335.855 191.71 337.298 193.669C337.051 194.009 336.753 194.31 336.414 194.56C334.776 195.829 333.167 197.13 331.515 198.381C330.143 196.705 328.889 194.927 327.472 193.296C327.131 192.984 326.86 192.366 327.402 192.091Z" fill="#003D79"/>
</g>
<defs>
<linearGradient id="paint0_linear_1208_914" x1="341.5" y1="487" x2="341.5" y2="602" gradientUnits="userSpaceOnUse">
<stop stop-color="#5EBAFF"/>
<stop offset="1" stop-color="white" stop-opacity="0"/>
</linearGradient>
<clipPath id="clip0_1208_914">
<rect width="374.511" height="301.058" fill="white" transform="translate(151.896 244.344)"/>
</clipPath>
<clipPath id="clip1_1208_914">
<rect width="164.148" height="178.067" fill="white" transform="translate(268.187) rotate(13.8727)"/>
</clipPath>
</defs>
</svg>
