<svg width="683" height="567" viewBox="0 0 683 567" fill="none" xmlns="http://www.w3.org/2000/svg">
<g clip-path="url(#clip0_1208_917)">
<path d="M434.116 343.204C437.247 341.912 440.65 341.416 444.02 341.761C443.019 346.415 437.879 346.01 434.37 347.48C420.39 352.222 407.772 360.29 397.602 370.989C387.432 381.689 380.014 394.699 375.987 408.901L372.221 408.403C379.523 377.85 404.521 352.856 434.116 343.204Z" fill="#27497E"/>
<path d="M230.699 320.042C231.013 318.769 231.388 317.633 231.738 316.436C266.401 326.726 291.799 362.005 290.008 398.186L286.28 397.698C286.3 385.388 283.538 373.233 278.2 362.14C272.863 351.047 265.088 341.304 255.457 333.638C248.227 327.423 239.447 323.607 230.699 320.042Z" fill="#27497E"/>
<path d="M118.892 309.121C123.07 305.98 127.214 302.763 131.205 299.454C135.579 304.653 139.585 310.14 143.864 315.396C139.05 319.852 133.594 323.515 128.637 327.841L126.915 327.159C123.454 322.253 119.19 317.972 115.964 312.935C116.46 311.359 117.497 310.008 118.892 309.121V309.121Z" fill="#27497E"/>
<path d="M353.879 49.0497C373.288 44.1175 393.854 46.9302 411.226 56.8926C419.876 61.929 427.425 68.6518 433.427 76.6619C439.429 84.672 443.76 93.8061 446.164 103.522C448.173 112.121 450.344 120.665 452.356 129.251L455.91 131.263C445.068 131.421 435.039 135.831 424.371 136.978C422.657 128.115 420.403 119.361 418.343 110.588C416.471 103.103 412.777 96.1965 407.591 90.484C402.405 84.7714 395.887 80.4295 388.617 77.8448C378.214 73.7631 366.688 74.8326 356.184 77.9373C349.689 79.5892 343.618 82.6013 338.374 86.7746C333.13 90.9478 328.831 96.1871 325.763 102.146C321.538 111.487 319.27 122.149 321.623 132.305C323.671 141.237 325.643 150.205 328.107 159.037L330.142 159.27C321.211 161.534 312.066 162.908 303.321 165.893C302.155 166.294 301.009 166.673 299.862 167.213C298.558 155.818 294.301 145.003 292.746 133.64C291.395 123.832 291.993 113.855 294.507 104.279C297.02 94.7036 301.398 85.7182 307.391 77.8381C318.836 62.8692 335.379 52.6246 353.879 49.0497V49.0497Z" fill="#FFC647"/>
<path d="M481.319 196.2C477.411 179.219 473.029 162.35 469.237 145.33C467.886 138.717 463.386 131.569 455.931 131.241C445.089 131.399 435.06 135.809 424.392 136.956C392.856 143.86 361.533 151.762 330.142 159.283C321.21 161.547 312.066 162.921 303.32 165.906C302.155 166.307 301.008 166.686 299.861 167.226C292.854 169.628 288.873 177.598 290.277 184.71C291.666 192.427 293.955 199.947 295.621 207.637C298.81 219.822 301.004 232.261 304.711 244.318C308.18 254.959 313.72 264.81 321.011 273.302C328.303 281.794 337.202 288.759 347.197 293.797C364.031 302.843 383.997 305.276 402.694 301.858C413.669 299.302 424.888 297.239 434.978 291.979C451.822 283.398 465.538 269.735 474.184 252.925C482.512 235.387 485.676 215.196 481.319 196.2ZM387.127 247.711C386.233 237.389 385.284 227.067 384.199 216.752C379.788 214.433 375.415 210.761 375.073 205.423C373.508 197.541 380.118 189.694 388.055 189.547C395.706 188.642 402.686 195.538 402.72 203.054C402.657 206.753 400.979 210.106 399.044 213.18C402.57 223.017 406.706 232.627 410.299 242.468C402.59 244.264 394.955 246.47 387.127 247.711Z" fill="#FF6F35"/>
<path d="M250.105 282.567C257.916 276.528 265.58 270.265 273.513 264.337C280.036 272.701 286.731 280.917 292.981 289.402C291.91 290.878 290.618 292.18 289.151 293.263C282.053 298.762 275.084 304.401 267.926 309.817C261.981 302.556 256.55 294.854 250.409 287.787C248.933 286.437 247.758 283.756 250.105 282.567Z" fill="#FF7036"/>
<path d="M314.198 392.435C317.882 389.588 321.496 386.634 325.236 383.839C328.312 387.783 331.469 391.657 334.416 395.658C333.911 396.354 333.302 396.968 332.61 397.479C329.263 400.072 325.977 402.731 322.601 405.285C319.798 401.861 317.237 398.229 314.342 394.897C313.646 394.26 313.092 392.996 314.198 392.435Z" fill="#003D79"/>
</g>
<path d="M683 567H0C57.3261 538.333 203.098 481 327.578 481C452.058 481 616.393 538.333 683 567Z" fill="url(#paint0_linear_1208_917)"/>
<defs>
<linearGradient id="paint0_linear_1208_917" x1="341.5" y1="481" x2="341.5" y2="567" gradientUnits="userSpaceOnUse">
<stop stop-color="#5EBAFF"/>
<stop offset="1" stop-color="white" stop-opacity="0"/>
</linearGradient>
<clipPath id="clip0_1208_917">
<rect width="335.349" height="363.785" fill="white" transform="translate(193.223) rotate(13.8727)"/>
</clipPath>
</defs>
</svg>
