<?xml version="1.0" encoding="utf-8"?><!-- Uploaded to: SVG Repo, www.svgrepo.com, Generator: SVG Repo Mixer Tools -->
<svg width="800px" height="800px" viewBox="0 0 24 24" id="_003_ECOMMERCE_03" data-name="003_ECOMMERCE_03" xmlns="http://www.w3.org/2000/svg"><title>003_084</title><path d="M20,21H4a.99974.99974,0,0,1-1-1V4A.99974.99974,0,0,1,4,3h9a1,1,0,0,1,0,2H5V19H19V5H17a1,1,0,0,1,0-2h3a.99974.99974,0,0,1,1,1V20A.99974.99974,0,0,1,20,21Z" style="fill:#333"/><polygon points="10 4 10 11 12 9 14 11 14 4 10 4" style="fill:#333"/></svg>